<svg xmlns="http://www.w3.org/2000/svg" viewBox="0 0 560 720" fill="none" stroke="#2f353b" stroke-linecap="round" stroke-linejoin="round" stroke-width="6">
  <path d="M280 672c-43-74-58-142-43-204 8-34 28-62 58-83 28-20 43-45 42-75-1-37-28-63-63-62-37 1-66 31-67 75-1 35 11 69 28 100" />
  <path d="M175 646c-46-76-71-156-65-236 5-70 31-128 78-172 45-41 101-60 157-51 57 9 105 48 125 102 24 64 11 128-38 181-29 31-47 64-54 99-6 30-3 61 8 93" />
  <path d="M102 600c-42-84-59-168-49-253 11-95 58-172 130-215 68-41 150-45 218-11 77 38 124 119 119 207-3 62-27 115-73 161-38 38-57 82-57 132 0 23 3 43 10 61" />
  <path d="M61 491c-15-67-16-131-3-190 19-86 74-161 150-203 82-45 178-44 255 2 78 46 128 130 130 221 1 77-29 144-88 201-27 26-43 58-47 96" />
  <path d="M62 390c1-94 37-182 104-246 67-64 156-92 241-75 96 19 174 96 200 197" />
  <path d="M107 258c47-112 156-178 266-159 69 12 129 55 166 116" />
  <path d="M174 214c47-58 119-86 187-72 74 15 132 75 146 153" />
  <path d="M226 322c2-69 48-116 106-118 59-2 105 40 112 98 5 43-10 81-44 115" />
  <path d="M298 463c25-29 52-54 76-78 25-25 32-55 18-83-12-24-34-38-59-37-30 2-52 27-51 61 1 27 11 54 26 83" />
  <path d="M146 476c-19-111 3-197 65-256" />
  <path d="M458 60c43 28 76 67 99 116" />
  <path d="M57 199c20-41 48-78 83-108" />
  <path d="M111 661c-21-34-38-71-52-111" />
  <path d="M454 676c-10-27-15-55-15-84" />
</svg>
